<?xml version="1.0" encoding="UTF-8"?>
<svg id="Calque_2" data-name="Calque 2" xmlns="http://www.w3.org/2000/svg" xmlns:xlink="http://www.w3.org/1999/xlink" viewBox="0 0 195.71 170.5">
  <defs>
    <style>
      .cls-1 {
        fill: url(#Dégradé_sans_nom_26-11);
      }

      .cls-1, .cls-2, .cls-3, .cls-4, .cls-5, .cls-6, .cls-7, .cls-8, .cls-9, .cls-10, .cls-11, .cls-12, .cls-13, .cls-14, .cls-15, .cls-16, .cls-17, .cls-18, .cls-19, .cls-20, .cls-21, .cls-22, .cls-23, .cls-24, .cls-25, .cls-26, .cls-27, .cls-28, .cls-29, .cls-30, .cls-31, .cls-32, .cls-33, .cls-34, .cls-35, .cls-36, .cls-37, .cls-38, .cls-39, .cls-40, .cls-41, .cls-42, .cls-43, .cls-44, .cls-45, .cls-46, .cls-47, .cls-48, .cls-49 {
        stroke-width: 0px;
      }

      .cls-2 {
        fill: url(#Dégradé_sans_nom_26-10);
      }

      .cls-3 {
        fill: url(#Dégradé_sans_nom_26-47);
      }

      .cls-4 {
        fill: url(#Dégradé_sans_nom_26-46);
      }

      .cls-5 {
        fill: url(#Dégradé_sans_nom_26-14);
      }

      .cls-6 {
        fill: url(#Dégradé_sans_nom_26-17);
      }

      .cls-7 {
        fill: url(#Dégradé_sans_nom_26-16);
      }

      .cls-8 {
        fill: url(#Dégradé_sans_nom_26-13);
      }

      .cls-9 {
        fill: url(#Dégradé_sans_nom_26-12);
      }

      .cls-10 {
        fill: url(#Dégradé_sans_nom_26-49);
      }

      .cls-11 {
        fill: url(#Dégradé_sans_nom_26-48);
      }

      .cls-12 {
        fill: url(#Dégradé_sans_nom_26-45);
      }

      .cls-13 {
        fill: url(#Dégradé_sans_nom_26-44);
      }

      .cls-14 {
        fill: url(#Dégradé_sans_nom_26-38);
      }

      .cls-15 {
        fill: url(#Dégradé_sans_nom_26-34);
      }

      .cls-16 {
        fill: url(#Dégradé_sans_nom_26-37);
      }

      .cls-17 {
        fill: url(#Dégradé_sans_nom_26-36);
      }

      .cls-18 {
        fill: url(#Dégradé_sans_nom_26-33);
      }

      .cls-19 {
        fill: url(#Dégradé_sans_nom_26-30);
      }

      .cls-20 {
        fill: url(#Dégradé_sans_nom_26-32);
      }

      .cls-21 {
        fill: url(#Dégradé_sans_nom_26-31);
      }

      .cls-22 {
        fill: url(#Dégradé_sans_nom_26-22);
      }

      .cls-23 {
        fill: url(#Dégradé_sans_nom_26-21);
      }

      .cls-24 {
        fill: url(#Dégradé_sans_nom_26-20);
      }

      .cls-25 {
        fill: url(#Dégradé_sans_nom_26-35);
      }

      .cls-26 {
        fill: url(#Dégradé_sans_nom_26-39);
      }

      .cls-27 {
        fill: url(#Dégradé_sans_nom_26-28);
      }

      .cls-28 {
        fill: url(#Dégradé_sans_nom_26-27);
      }

      .cls-29 {
        fill: url(#Dégradé_sans_nom_26-19);
      }

      .cls-30 {
        fill: url(#Dégradé_sans_nom_26-15);
      }

      .cls-31 {
        fill: url(#Dégradé_sans_nom_26-18);
      }

      .cls-32 {
        fill: url(#Dégradé_sans_nom_26-29);
      }

      .cls-33 {
        fill: url(#Dégradé_sans_nom_26-43);
      }

      .cls-34 {
        fill: url(#Dégradé_sans_nom_26-42);
      }

      .cls-35 {
        fill: url(#Dégradé_sans_nom_26-40);
      }

      .cls-36 {
        fill: url(#Dégradé_sans_nom_26-41);
      }

      .cls-37 {
        fill: url(#Dégradé_sans_nom_26-8);
      }

      .cls-38 {
        fill: url(#Dégradé_sans_nom_26-5);
      }

      .cls-39 {
        fill: url(#Dégradé_sans_nom_26-7);
      }

      .cls-40 {
        fill: url(#Dégradé_sans_nom_26-6);
      }

      .cls-41 {
        fill: url(#Dégradé_sans_nom_26-3);
      }

      .cls-42 {
        fill: url(#Dégradé_sans_nom_26-4);
      }

      .cls-43 {
        fill: url(#Dégradé_sans_nom_26-2);
      }

      .cls-44 {
        fill: url(#Dégradé_sans_nom_26-9);
      }

      .cls-44, .cls-45, .cls-46, .cls-47, .cls-48 {
        opacity: .22;
      }

      .cls-45 {
        fill: url(#Dégradé_sans_nom_26-24);
      }

      .cls-46 {
        fill: url(#Dégradé_sans_nom_26-26);
      }

      .cls-47 {
        fill: url(#Dégradé_sans_nom_26-25);
      }

      .cls-48 {
        fill: url(#Dégradé_sans_nom_26-23);
      }

      .cls-49 {
        fill: url(#Dégradé_sans_nom_26);
      }
    </style>
    <linearGradient id="Dégradé_sans_nom_26" data-name="Dégradé sans nom 26" x1="6.02" y1="108.33" x2="7.49" y2="108.33" gradientUnits="userSpaceOnUse">
      <stop offset="0" stop-color="#00f8d4"/>
      <stop offset="1" stop-color="#4a49fb"/>
    </linearGradient>
    <linearGradient id="Dégradé_sans_nom_26-2" data-name="Dégradé sans nom 26" x1="22.6" y1="136.36" x2="24.85" y2="136.36" xlink:href="#Dégradé_sans_nom_26"/>
    <linearGradient id="Dégradé_sans_nom_26-3" data-name="Dégradé sans nom 26" x1="14.76" y1="20.36" x2="15.69" y2="20.36" xlink:href="#Dégradé_sans_nom_26"/>
    <linearGradient id="Dégradé_sans_nom_26-4" data-name="Dégradé sans nom 26" x1="160.23" y1="146.62" x2="163.21" y2="146.62" xlink:href="#Dégradé_sans_nom_26"/>
    <linearGradient id="Dégradé_sans_nom_26-5" data-name="Dégradé sans nom 26" x1="167.48" y1="139.09" x2="171.51" y2="139.09" xlink:href="#Dégradé_sans_nom_26"/>
    <linearGradient id="Dégradé_sans_nom_26-6" data-name="Dégradé sans nom 26" x1="163.26" y1="10.55" x2="180.96" y2="10.55" xlink:href="#Dégradé_sans_nom_26"/>
    <linearGradient id="Dégradé_sans_nom_26-7" data-name="Dégradé sans nom 26" x1="57.68" y1="17.61" x2="57.87" y2="17.61" xlink:href="#Dégradé_sans_nom_26"/>
    <linearGradient id="Dégradé_sans_nom_26-8" data-name="Dégradé sans nom 26" x1="63.36" y1="102.31" x2="63.77" y2="102.31" xlink:href="#Dégradé_sans_nom_26"/>
    <linearGradient id="Dégradé_sans_nom_26-9" data-name="Dégradé sans nom 26" x1="57.68" y1="17.61" x2="57.87" y2="17.61" xlink:href="#Dégradé_sans_nom_26"/>
    <linearGradient id="Dégradé_sans_nom_26-10" data-name="Dégradé sans nom 26" x1="135.44" y1="14.61" x2="136.35" y2="14.61" xlink:href="#Dégradé_sans_nom_26"/>
    <linearGradient id="Dégradé_sans_nom_26-11" data-name="Dégradé sans nom 26" x1="136.43" y1="14.97" x2="137.27" y2="14.97" xlink:href="#Dégradé_sans_nom_26"/>
    <linearGradient id="Dégradé_sans_nom_26-12" data-name="Dégradé sans nom 26" x1="137.58" y1="15.38" x2="137.89" y2="15.38" xlink:href="#Dégradé_sans_nom_26"/>
    <linearGradient id="Dégradé_sans_nom_26-13" data-name="Dégradé sans nom 26" x1="142.64" y1="21.4" x2="143.27" y2="21.4" xlink:href="#Dégradé_sans_nom_26"/>
    <linearGradient id="Dégradé_sans_nom_26-14" data-name="Dégradé sans nom 26" x1="87.43" y1="84.47" x2="87.5" y2="84.47" xlink:href="#Dégradé_sans_nom_26"/>
    <linearGradient id="Dégradé_sans_nom_26-15" data-name="Dégradé sans nom 26" x1="88.37" y1="87.37" x2="88.73" y2="87.37" xlink:href="#Dégradé_sans_nom_26"/>
    <linearGradient id="Dégradé_sans_nom_26-16" data-name="Dégradé sans nom 26" x1="91.84" y1="91.5" x2="92.43" y2="91.5" xlink:href="#Dégradé_sans_nom_26"/>
    <linearGradient id="Dégradé_sans_nom_26-17" data-name="Dégradé sans nom 26" x1="108.83" y1="88.98" x2="109.05" y2="88.98" xlink:href="#Dégradé_sans_nom_26"/>
    <linearGradient id="Dégradé_sans_nom_26-18" data-name="Dégradé sans nom 26" x1="109.44" y1="88.03" x2="109.72" y2="88.03" xlink:href="#Dégradé_sans_nom_26"/>
    <linearGradient id="Dégradé_sans_nom_26-19" data-name="Dégradé sans nom 26" x1="109.72" y1="87.65" x2="109.89" y2="87.65" xlink:href="#Dégradé_sans_nom_26"/>
    <linearGradient id="Dégradé_sans_nom_26-20" data-name="Dégradé sans nom 26" x1="134.74" y1="102.31" x2="135.15" y2="102.31" xlink:href="#Dégradé_sans_nom_26"/>
    <linearGradient id="Dégradé_sans_nom_26-21" data-name="Dégradé sans nom 26" x1="135.74" y1="101.82" x2="137.17" y2="101.82" xlink:href="#Dégradé_sans_nom_26"/>
    <linearGradient id="Dégradé_sans_nom_26-22" data-name="Dégradé sans nom 26" x1="142.64" y1="21.4" x2="143.27" y2="21.4" xlink:href="#Dégradé_sans_nom_26"/>
    <linearGradient id="Dégradé_sans_nom_26-23" data-name="Dégradé sans nom 26" x1="135.44" y1="14.61" x2="136.35" y2="14.61" xlink:href="#Dégradé_sans_nom_26"/>
    <linearGradient id="Dégradé_sans_nom_26-24" data-name="Dégradé sans nom 26" x1="136.43" y1="14.97" x2="137.27" y2="14.97" xlink:href="#Dégradé_sans_nom_26"/>
    <linearGradient id="Dégradé_sans_nom_26-25" data-name="Dégradé sans nom 26" x1="137.58" y1="15.38" x2="137.89" y2="15.38" xlink:href="#Dégradé_sans_nom_26"/>
    <linearGradient id="Dégradé_sans_nom_26-26" data-name="Dégradé sans nom 26" x1="142.64" y1="21.4" x2="143.27" y2="21.4" xlink:href="#Dégradé_sans_nom_26"/>
    <linearGradient id="Dégradé_sans_nom_26-27" data-name="Dégradé sans nom 26" x1="108.83" y1="88.98" x2="109.05" y2="88.98" xlink:href="#Dégradé_sans_nom_26"/>
    <linearGradient id="Dégradé_sans_nom_26-28" data-name="Dégradé sans nom 26" x1="109.44" y1="87.88" x2="109.89" y2="87.88" xlink:href="#Dégradé_sans_nom_26"/>
    <linearGradient id="Dégradé_sans_nom_26-29" data-name="Dégradé sans nom 26" x1="135.44" y1="14.61" x2="136.35" y2="14.61" xlink:href="#Dégradé_sans_nom_26"/>
    <linearGradient id="Dégradé_sans_nom_26-30" data-name="Dégradé sans nom 26" x1="136.43" y1="14.97" x2="137.27" y2="14.97" xlink:href="#Dégradé_sans_nom_26"/>
    <linearGradient id="Dégradé_sans_nom_26-31" data-name="Dégradé sans nom 26" x1="142.64" y1="21.4" x2="143.27" y2="21.4" xlink:href="#Dégradé_sans_nom_26"/>
    <linearGradient id="Dégradé_sans_nom_26-32" data-name="Dégradé sans nom 26" x1="87.43" y1="84.47" x2="87.5" y2="84.47" xlink:href="#Dégradé_sans_nom_26"/>
    <linearGradient id="Dégradé_sans_nom_26-33" data-name="Dégradé sans nom 26" x1="88.37" y1="87.37" x2="88.73" y2="87.37" xlink:href="#Dégradé_sans_nom_26"/>
    <linearGradient id="Dégradé_sans_nom_26-34" data-name="Dégradé sans nom 26" x1="91.84" y1="91.5" x2="92.43" y2="91.5" xlink:href="#Dégradé_sans_nom_26"/>
    <linearGradient id="Dégradé_sans_nom_26-35" data-name="Dégradé sans nom 26" x1="108.83" y1="88.98" x2="109.05" y2="88.98" xlink:href="#Dégradé_sans_nom_26"/>
    <linearGradient id="Dégradé_sans_nom_26-36" data-name="Dégradé sans nom 26" x1="109.44" y1="87.88" x2="109.89" y2="87.88" xlink:href="#Dégradé_sans_nom_26"/>
    <linearGradient id="Dégradé_sans_nom_26-37" data-name="Dégradé sans nom 26" x1="14.76" y1="20.36" x2="15.69" y2="20.36" xlink:href="#Dégradé_sans_nom_26"/>
    <linearGradient id="Dégradé_sans_nom_26-38" data-name="Dégradé sans nom 26" x1="21.41" y1="80.59" x2="23.61" y2="80.59" xlink:href="#Dégradé_sans_nom_26"/>
    <linearGradient id="Dégradé_sans_nom_26-39" data-name="Dégradé sans nom 26" x1="27.12" y1="90.74" x2="28.09" y2="90.74" xlink:href="#Dégradé_sans_nom_26"/>
    <linearGradient id="Dégradé_sans_nom_26-40" data-name="Dégradé sans nom 26" x1="14.76" y1="20.36" x2="15.69" y2="20.36" xlink:href="#Dégradé_sans_nom_26"/>
    <linearGradient id="Dégradé_sans_nom_26-41" data-name="Dégradé sans nom 26" x1="163.26" y1="10.55" x2="180.96" y2="10.55" xlink:href="#Dégradé_sans_nom_26"/>
    <linearGradient id="Dégradé_sans_nom_26-42" data-name="Dégradé sans nom 26" x1="167.62" y1="87.06" x2="172.4" y2="87.06" xlink:href="#Dégradé_sans_nom_26"/>
    <linearGradient id="Dégradé_sans_nom_26-43" data-name="Dégradé sans nom 26" x1="163.26" y1="10.55" x2="180.96" y2="10.55" xlink:href="#Dégradé_sans_nom_26"/>
    <linearGradient id="Dégradé_sans_nom_26-44" data-name="Dégradé sans nom 26" x1="26.59" y1="8.28" x2="27.4" y2="8.28" xlink:href="#Dégradé_sans_nom_26"/>
    <linearGradient id="Dégradé_sans_nom_26-45" data-name="Dégradé sans nom 26" x1="168.31" y1="8.73" x2="169.62" y2="8.73" xlink:href="#Dégradé_sans_nom_26"/>
    <linearGradient id="Dégradé_sans_nom_26-46" data-name="Dégradé sans nom 26" x1="173.11" y1="18.92" x2="174.59" y2="18.92" xlink:href="#Dégradé_sans_nom_26"/>
    <linearGradient id="Dégradé_sans_nom_26-47" data-name="Dégradé sans nom 26" x1="54.28" y1="58.23" x2="144.22" y2="58.23" xlink:href="#Dégradé_sans_nom_26"/>
    <linearGradient id="Dégradé_sans_nom_26-48" data-name="Dégradé sans nom 26" x1="0" y1="85.25" x2="195.71" y2="85.25" xlink:href="#Dégradé_sans_nom_26"/>
    <linearGradient id="Dégradé_sans_nom_26-49" data-name="Dégradé sans nom 26" x1="14.76" y1="20.36" x2="15.69" y2="20.36" xlink:href="#Dégradé_sans_nom_26"/>
  </defs>
  <g id="OBJECTS">
    <g>
      <path class="cls-49" d="M7.49,110.19c-.52-1.23-1-2.47-1.47-3.73.46,1.26.95,2.5,1.47,3.73Z"/>
      <path class="cls-43" d="M24.85,137.66c-.78-.86-1.52-1.72-2.25-2.6.74.88,1.49,1.75,2.25,2.6Z"/>
      <path class="cls-41" d="M15.69,19.63c-.25.39-.49.78-.73,1.17-.01,0-.01.01-.01.02-.07.09-.13.18-.19.27.31-.49.62-.98.93-1.46Z"/>
      <path class="cls-42" d="M163.21,145.33c-.98.89-1.97,1.75-2.98,2.57,1.01-.84,2.01-1.7,2.98-2.57Z"/>
      <path class="cls-38" d="M171.51,136.92c-1.29,1.49-2.63,2.93-4.03,4.33,1.39-1.4,2.73-2.84,4.03-4.33Z"/>
      <path class="cls-40" d="M180.96,21.09c-4.44-6.61-9.65-12.66-15.5-18.02-.71-1.04-1.44-2.07-2.2-3.07.43.38.85.77,1.27,1.17.41.37.81.75,1.2,1.13.06.06.12.11.17.17.38.36.75.72,1.11,1.09.41.41.81.82,1.21,1.23.31.32.61.64.92.96.88.93,1.74,1.88,2.58,2.85.32.36.63.73.94,1.1.8.95,1.59,1.91,2.35,2.89.36.46.71.92,1.05,1.38.34.44.67.88.99,1.33.06.08.12.16.17.24.64.87,1.25,1.75,1.85,2.65.3.43.59.87.88,1.32.34.52.68,1.05,1.01,1.58Z"/>
      <g>
        <path class="cls-39" d="M57.87,17.51c-.07.07-.13.13-.19.2.05-.06.1-.12.15-.17.01-.01.02-.02.04-.03Z"/>
        <path class="cls-37" d="M63.77,102.35h0c-.14-.02-.27-.05-.41-.09.13.04.27.07.41.09Z"/>
        <path class="cls-44" d="M57.87,17.51c-.07.07-.13.13-.19.2.05-.06.1-.12.15-.17.01-.01.02-.02.04-.03Z"/>
        <path class="cls-2" d="M136.35,14.76c-.3-.11-.6-.21-.91-.3.18.05.35.1.52.16.13.04.26.09.39.14Z"/>
        <path class="cls-1" d="M137.27,15.15c-.27-.13-.55-.25-.84-.36.14.05.27.1.41.16.12.05.24.1.36.16.02,0,.05.02.07.04Z"/>
        <path class="cls-9" d="M137.89,15.46c-.07-.04-.15-.08-.23-.11-.03-.02-.05-.03-.08-.05.11.05.21.1.31.16Z"/>
        <path class="cls-8" d="M143.27,22.18c-.18-.54-.39-1.06-.63-1.57.25.51.46,1.03.63,1.57Z"/>
        <path class="cls-5" d="M87.5,84.6c-.03-.09-.05-.18-.07-.27t.02.01c.01.08.03.17.05.26Z"/>
        <path class="cls-30" d="M88.73,87.71s-.04-.06-.06-.1c-.11-.19-.21-.39-.3-.59.11.23.23.46.36.69Z"/>
        <path class="cls-7" d="M92.43,91.71c-.11-.07-.22-.15-.32-.22-.09-.07-.18-.14-.27-.21.19.15.39.29.59.43Z"/>
        <path class="cls-6" d="M109.05,88.83c-.04.07-.09.14-.15.21-.02.03-.04.05-.07.08.07-.09.15-.19.22-.29Z"/>
        <path class="cls-31" d="M109.72,87.8c-.05.1-.11.21-.18.31-.03.05-.06.1-.1.15.1-.15.19-.3.28-.46Z"/>
        <path class="cls-29" d="M109.89,87.5c-.03.07-.07.14-.11.21l-.05.09h-.01c.06-.1.12-.2.17-.3Z"/>
        <path class="cls-24" d="M135.15,102.26c-.13.04-.27.07-.41.1h0c.14-.03.28-.06.41-.1Z"/>
        <path class="cls-23" d="M137.17,101.54c-.46.22-.94.4-1.43.55.49-.16.97-.34,1.43-.55Z"/>
        <path class="cls-22" d="M143.27,22.18c-.18-.54-.39-1.06-.63-1.57.25.51.46,1.03.63,1.57Z"/>
        <path class="cls-48" d="M136.35,14.76c-.3-.11-.6-.21-.91-.3.18.05.35.1.52.16.13.04.26.09.39.14Z"/>
        <path class="cls-45" d="M137.27,15.15c-.27-.13-.55-.25-.84-.36.14.05.27.1.41.16.12.05.24.1.36.16.02,0,.05.02.07.04Z"/>
        <path class="cls-47" d="M137.89,15.46c-.07-.04-.15-.08-.23-.11-.03-.02-.05-.03-.08-.05.11.05.21.1.31.16Z"/>
        <path class="cls-46" d="M143.27,22.18c-.18-.54-.39-1.06-.63-1.57.25.51.46,1.03.63,1.57Z"/>
        <path class="cls-28" d="M109.05,88.83c-.04.07-.09.14-.15.21-.02.03-.04.05-.07.08.07-.09.15-.19.22-.29Z"/>
        <path class="cls-27" d="M109.89,87.5c-.03.07-.07.14-.11.21l-.05.09c-.06.1-.12.21-.19.31-.03.05-.06.1-.1.15.1-.15.19-.3.28-.46.06-.1.12-.2.17-.3Z"/>
        <path class="cls-32" d="M136.35,14.76c-.3-.11-.6-.21-.91-.3.18.05.35.1.52.16.13.04.26.09.39.14Z"/>
        <path class="cls-19" d="M137.27,15.15c-.27-.13-.55-.25-.84-.36.14.05.27.1.41.16.12.05.24.1.36.16.02,0,.05.02.07.04Z"/>
        <path class="cls-21" d="M143.27,22.18c-.18-.54-.39-1.06-.63-1.57.25.51.46,1.03.63,1.57Z"/>
        <path class="cls-20" d="M87.5,84.6c-.03-.09-.05-.18-.07-.27t.02.01c.01.08.03.17.05.26Z"/>
        <path class="cls-18" d="M88.73,87.71s-.04-.06-.06-.1c-.11-.19-.21-.39-.3-.59.11.23.23.46.36.69Z"/>
        <path class="cls-15" d="M92.43,91.71c-.11-.07-.22-.15-.32-.22-.09-.07-.18-.14-.27-.21.19.15.39.29.59.43Z"/>
        <path class="cls-25" d="M109.05,88.83c-.04.07-.09.14-.15.21-.02.03-.04.05-.07.08.07-.09.15-.19.22-.29Z"/>
        <path class="cls-17" d="M109.89,87.5c-.03.07-.07.14-.11.21l-.05.09c-.06.1-.12.21-.19.31-.03.05-.06.1-.1.15.1-.15.19-.3.28-.46.06-.1.12-.2.17-.3Z"/>
      </g>
      <path class="cls-16" d="M15.69,19.63c-.25.39-.49.78-.73,1.17-.01,0-.01.01-.01.02-.07.09-.13.18-.19.27.31-.49.62-.98.93-1.46Z"/>
      <path class="cls-14" d="M23.61,83.19c-.8-1.7-1.53-3.44-2.2-5.21.68,1.76,1.41,3.5,2.2,5.21Z"/>
      <path class="cls-26" d="M28.09,91.53v.02c-.33-.54-.66-1.08-.97-1.63.32.54.64,1.08.97,1.61Z"/>
      <path class="cls-35" d="M15.69,19.63c-.25.39-.49.78-.73,1.17-.01,0-.01.01-.01.02-.07.09-.13.18-.19.27.31-.49.62-.98.93-1.46Z"/>
      <path class="cls-36" d="M180.96,21.09c-4.44-6.61-9.65-12.66-15.5-18.02-.71-1.04-1.44-2.07-2.2-3.07.43.38.85.77,1.27,1.17.41.37.81.75,1.2,1.13.06.06.12.11.17.17.38.36.75.72,1.11,1.09.41.41.81.82,1.21,1.23.31.32.61.64.92.96.88.93,1.74,1.88,2.58,2.85.32.36.63.73.94,1.1.8.95,1.59,1.91,2.35,2.89.36.46.71.92,1.05,1.38.34.44.67.88.99,1.33.06.08.12.16.17.24.64.87,1.25,1.75,1.85,2.65.3.43.59.87.88,1.32.34.52.68,1.05,1.01,1.58Z"/>
      <path class="cls-34" d="M172.4,82.56c-1.4,3.11-3,6.11-4.78,9v-.03c1.77-2.88,3.37-5.88,4.78-8.97Z"/>
      <g>
        <path class="cls-33" d="M180.96,21.09c-4.44-6.61-9.65-12.66-15.5-18.02-.71-1.04-1.44-2.07-2.2-3.07.43.38.85.77,1.27,1.17.41.37.81.75,1.2,1.13.06.06.12.11.17.17.38.36.75.72,1.11,1.09.41.41.81.82,1.21,1.23.31.32.61.64.92.96.88.93,1.74,1.88,2.58,2.85.32.36.63.73.94,1.1.8.95,1.59,1.91,2.35,2.89.36.46.71.92,1.05,1.38.34.44.67.88.99,1.33.06.08.12.16.17.24.64.87,1.25,1.75,1.85,2.65.3.43.59.87.88,1.32.34.52.68,1.05,1.01,1.58Z"/>
        <path class="cls-13" d="M27.4,7.58c-.27.46-.54.92-.81,1.39.17-.32.35-.64.54-.95.03-.07.08-.14.12-.21.05-.08.1-.15.15-.23Z"/>
        <path class="cls-12" d="M169.62,9.88c-.42-.77-.86-1.54-1.31-2.3.05.08.1.15.15.23.04.07.09.14.12.21.36.61.71,1.23,1.04,1.86Z"/>
        <path class="cls-4" d="M174.59,20.78c-.47-1.26-.96-2.5-1.48-3.73.53,1.23,1.02,2.47,1.48,3.73Z"/>
        <path class="cls-3" d="M144.2,25.47c0-.18-.02-.35-.03-.53-.01-.13-.03-.25-.05-.38-.01-.15-.03-.29-.06-.43-.03-.16-.06-.32-.09-.48-.02-.13-.05-.26-.09-.39-.05-.22-.1-.44-.17-.65-.05-.16-.1-.31-.15-.47-.05-.15-.11-.31-.17-.46-.3-.76-.67-1.48-1.11-2.15-.07-.12-.15-.23-.22-.34-.13-.19-.26-.37-.41-.54-.13-.18-.27-.35-.42-.51-.05-.07-.11-.14-.17-.2t-.02-.02c-.11-.13-.24-.26-.36-.38-.07-.07-.14-.14-.22-.21l-.04-.04c-.19-.18-.39-.36-.6-.53l-.16-.12c-.19-.16-.39-.31-.6-.45l-1.11-.69-.06-.04c-.07-.04-.15-.08-.23-.11-.03-.02-.05-.03-.08-.05-.1-.05-.21-.1-.31-.15-.27-.13-.55-.25-.84-.36.14.05.27.1.41.16-1.63-.77-3.36-1.13-5.07-1.13-4.18,0-8.25,2.15-10.49,6.01l-22.02,37.92-22.03-37.92c-3.1-5.33-9.68-7.41-15.22-5.02.06-.02.11-.04.17-.05-.13.04-.25.09-.38.14-.04.01-.09.03-.13.05-.11.05-.22.09-.32.14h-.01c-.21.11-.42.22-.63.34-.04.02-.07.04-.11.06-.07.04-.13.08-.2.12-.13.06-.25.13-.38.21-.05.03-.1.06-.15.09-.06.04-.12.08-.17.12-.28.18-.55.37-.82.58l-.06.04c-.24.2-.48.4-.7.62-.07.07-.15.14-.22.21-.01,0-.02.02-.03.03-.07.07-.13.13-.19.2-.1.1-.2.21-.29.31-.19.19-.36.39-.52.6-.22.28-.43.57-.62.87-.09.13-.18.27-.26.41-.17.28-.33.56-.47.86-.13.28-.26.56-.38.85-.07.17-.13.33-.19.5-.05.16-.1.32-.15.47-.11.35-.2.71-.27,1.07-.04.18-.07.37-.1.55-.04.24-.07.49-.1.74,0,.18-.03.35-.03.53-.01.2-.02.41-.02.62v64.46c0,.21.01.42.02.62,0,.15.01.3.03.45.01.11.02.22.03.32.02.15.04.3.06.45.03.2.07.4.11.6.24,1.18.65,2.29,1.21,3.32.09.16.18.32.27.47.12.2.24.4.38.59.75,1.1,1.68,2.07,2.75,2.87.55.41,1.13.77,1.74,1.08.14.08.28.15.43.21.12.06.24.11.36.16.15.06.3.12.45.18.21.08.43.16.65.22.08.03.16.05.24.07.11.04.23.07.35.1.13.04.27.07.41.09.84.19,1.71.29,2.61.29,6.67,0,12.09-5.41,12.09-12.09v-20.5l10.2,17.56c-.11-.19-.21-.39-.3-.59.11.23.23.46.36.69.02.03.03.06.05.09.25.43.52.84.83,1.24.02.03.05.07.08.1.08.12.18.23.27.34.04.05.08.1.13.15.17.2.35.4.54.58.09.1.18.19.28.28.19.18.39.36.59.52.07.06.14.12.21.17.04.04.08.07.13.1.19.15.39.29.59.43.04.03.07.05.11.08.04.02.07.04.11.07.13.08.26.16.4.24.05.04.1.07.16.1l1.46.71c.11.05.23.1.35.13.38.15.76.27,1.15.37l1.54.3c.51.07,1.02.1,1.53.1h.03c.51,0,1.02-.03,1.53-.1.52-.06,1.04-.16,1.54-.3.39-.1.77-.22,1.15-.37.12-.03.24-.08.35-.13.56-.22,1.1-.49,1.62-.81.19-.11.37-.22.55-.34.23-.15.45-.31.66-.48.27-.2.53-.41.77-.64.15-.14.3-.28.44-.43.19-.18.37-.38.54-.58.03-.03.05-.06.07-.09.12-.14.23-.27.34-.42.07-.09.15-.19.22-.29.09-.11.16-.22.24-.33.05-.08.1-.16.15-.24.1-.15.19-.3.28-.46.06-.1.12-.2.17-.3-.03.07-.07.14-.11.21l10.26-17.66v20.5c0,6.68,5.41,12.09,12.09,12.09.9,0,1.77-.1,2.61-.29.14-.02.28-.05.41-.09.2-.05.4-.1.59-.17.49-.16.97-.34,1.43-.55.16-.07.31-.14.46-.22.2-.1.4-.21.59-.33.18-.1.35-.2.52-.32.2-.13.4-.27.6-.41.27-.2.53-.41.78-.63.25-.22.49-.46.73-.7.23-.24.45-.49.66-.75.21-.26.41-.53.6-.81.14-.19.26-.39.38-.59.1-.15.19-.31.27-.47.12-.23.24-.46.35-.7.02-.03.03-.06.04-.09.11-.23.2-.46.29-.7.04-.08.06-.16.09-.24.08-.24.16-.48.23-.72.06-.22.12-.45.17-.68.04-.16.07-.33.1-.49.02-.1.04-.2.05-.3.02-.15.04-.3.06-.45.03-.25.05-.51.06-.77.01-.2.02-.41.02-.62V26.09c0-.21-.01-.42-.02-.62ZM87.43,84.33s.01.01.02.01c.01.08.03.17.05.26-.03-.09-.05-.18-.07-.27ZM135.44,14.46c.18.05.35.1.52.16.13.04.26.09.39.14-.3-.11-.6-.21-.91-.3ZM142.64,20.61c.25.51.46,1.03.63,1.57-.18-.54-.39-1.06-.63-1.57Z"/>
        <path class="cls-11" d="M180.96,21.09c-4.44-6.61-9.65-12.66-15.5-18.02,1.05,1.54,2.05,3.12,3,4.74.04.07.09.14.12.21.36.61.71,1.23,1.04,1.86.43.77.85,1.56,1.24,2.35.41.79.8,1.59,1.16,2.39.38.8.74,1.61,1.09,2.43.53,1.23,1.02,2.47,1.48,3.73.32.83.61,1.67.88,2.51,1.28,3.84,2.28,7.8,2.97,11.86.08.45.16.9.22,1.36.07.45.14.91.2,1.36.22,1.6.4,3.22.52,4.84.03.36.05.72.07,1.08.03.43.06.85.07,1.27.02.31.03.62.04.93.02.44.03.88.04,1.32.01.57.02,1.14.02,1.71,0,1.14-.02,2.29-.07,3.45-.02.44-.04.89-.07,1.33-.02.35-.04.69-.06,1.04-.04.52-.08,1.04-.13,1.56-.06.76-.14,1.53-.24,2.29-.06.53-.12,1.06-.2,1.58-.06.47-.13.94-.2,1.41-.02.08-.03.15-.04.23-.06.36-.12.71-.18,1.06-.07.43-.15.86-.23,1.29-.11.58-.22,1.15-.35,1.72-.32,1.55-.7,3.08-1.12,4.59-.11.42-.22.83-.35,1.24-.6,2.06-1.28,4.08-2.04,6.08-.23.6-.46,1.19-.7,1.79-.21.52-.43,1.03-.65,1.54-.19.45-.39.9-.59,1.34-1.4,3.11-3,6.11-4.78,9-13.8,22.49-38.18,37.87-66.06,39.07h-7.41c-27.88-1.2-52.26-16.59-66.06-39.08-.33-.54-.66-1.08-.97-1.63-.32-.55-.63-1.1-.94-1.66-.61-1.11-1.2-2.24-1.76-3.38-.28-.56-.55-1.12-.81-1.69-.8-1.7-1.53-3.44-2.2-5.21-.03-.07-.06-.14-.08-.21-.29-.76-.57-1.52-.83-2.29-.28-.8-.55-1.61-.8-2.43-.13-.41-.25-.82-.37-1.24-.09-.3-.17-.59-.25-.89-.12-.4-.23-.81-.33-1.21-.15-.54-.28-1.09-.42-1.64-.16-.69-.32-1.39-.47-2.09-.12-.57-.24-1.14-.35-1.72-.13-.69-.25-1.38-.36-2.07-.11-.64-.2-1.28-.29-1.92-.09-.64-.17-1.28-.24-1.93-.08-.63-.14-1.26-.2-1.89v-.05c-.06-.65-.11-1.31-.15-1.96-.05-.66-.08-1.31-.11-1.97-.05-1.17-.07-2.33-.07-3.49,0-.56.01-1.11.02-1.67.01-.4.02-.8.03-1.2.02-.41.03-.82.06-1.23.03-.6.06-1.19.11-1.78.02-.36.05-.71.08-1.06.08-.95.18-1.9.29-2.84.05-.43.11-.87.17-1.3.08-.57.16-1.14.25-1.7.13-.85.28-1.7.44-2.54.16-.84.33-1.68.52-2.51.1-.44.2-.88.31-1.32l.33-1.32c.23-.89.48-1.77.73-2.65.25-.85.51-1.69.8-2.53.29-.87.59-1.72.9-2.58.16-.43.32-.85.48-1.27.33-.85.67-1.68,1.03-2.52.17-.41.35-.83.54-1.24.37-.82.75-1.64,1.15-2.45.23-.49.47-.97.73-1.45.23-.48.48-.96.75-1.43.25-.48.51-.95.78-1.42.17-.32.35-.64.54-.95.03-.07.08-.14.12-.21.94-1.61,1.94-3.19,2.99-4.72l.02-.02c.35-.52.71-1.04,1.08-1.55.36-.51.73-1.02,1.11-1.52-.43.38-.85.77-1.27,1.17-.41.37-.81.75-1.2,1.13-.06.06-.12.11-.17.17-.38.36-.75.72-1.11,1.09-.41.41-.81.82-1.21,1.23-.31.32-.61.64-.92.96-.87.93-1.73,1.88-2.58,2.85-.32.36-.63.73-.94,1.1-.11.13-.22.26-.33.39-.32.38-.63.77-.94,1.15-.37.45-.72.9-1.08,1.35-.35.46-.7.92-1.05,1.38-.34.45-.68.92-1.02,1.38-1.03,1.4-2.01,2.82-2.94,4.28-.25.39-.49.78-.73,1.17-.01,0-.01.01-.01.02C4.87,36.85-.7,55.99.07,76.49c.08,2.18.24,4.33.46,6.47.05.52.11,1.04.18,1.55.02.22.05.44.08.66.05.39.1.78.15,1.17.08.58.17,1.16.27,1.74.01.11.03.23.05.34.1.61.2,1.22.32,1.83.4,2.26.89,4.49,1.46,6.69.11.43.22.86.35,1.29.07.29.15.59.24.89.1.37.21.74.32,1.12.13.44.26.88.4,1.31.05.17.11.35.16.52.19.6.39,1.2.6,1.8.16.49.32.97.5,1.45.13.38.27.76.41,1.14.47,1.26.95,2.5,1.47,3.73.25.6.51,1.19.77,1.79,0,.02.02.04.03.06.17.39.35.79.54,1.18.15.36.31.71.49,1.06.25.55.52,1.09.79,1.63.2.4.4.8.6,1.2.43.82.86,1.64,1.31,2.45.24.44.49.88.74,1.32.98,1.72,2.02,3.41,3.1,5.06.36.55.73,1.1,1.1,1.64.37.55.75,1.09,1.13,1.62.38.54.77,1.07,1.16,1.6.39.52.79,1.05,1.19,1.57.71.91,1.43,1.81,2.16,2.69.74.88,1.49,1.75,2.25,2.6.77.86,1.56,1.71,2.34,2.54.41.41.81.82,1.21,1.23.4.4.81.81,1.22,1.21.94.91,1.9,1.81,2.88,2.69.49.43.98.87,1.47,1.3.5.43,1,.85,1.51,1.27.89.74,1.79,1.45,2.71,2.16.32.25.64.49.97.74.63.47,1.26.94,1.91,1.4.34.24.68.49,1.03.74.86.6,1.74,1.19,2.62,1.76.44.29.89.56,1.34.85.52.32,1.03.64,1.56.96.51.3,1.02.61,1.53.91.48.27.96.54,1.44.8.98.54,1.96,1.07,2.95,1.58.39.19.77.39,1.16.58.64.32,1.28.63,1.93.93.34.16.68.32,1.03.47,2.26,1.03,4.56,1.97,6.91,2.83.23.09.47.17.71.26.8.28,1.6.56,2.41.83.03,0,.06.01.09.02,2.68.88,5.42,1.63,8.19,2.27.04.01.06.02.1.03,6.09,1.39,12.37,2.24,18.8,2.43.09,0,.18,0,.27.01.59.01,1.19.02,1.78.02.21,0,.43,0,.64.02.1,0,.2-.01.3-.01s.19.01.29.01c.22-.01.43-.01.64-.02.6,0,1.19-.01,1.78-.02.1-.01.19-.01.28-.01,6.43-.19,12.7-1.04,18.78-2.43h.02c3.73-.86,7.39-1.94,10.96-3.21.09-.04.18-.07.27-.1,2.52-.92,5-1.93,7.43-3.04.2-.09.4-.18.6-.28.75-.34,1.48-.7,2.22-1.06.19-.1.39-.2.58-.3,1.27-.64,2.52-1.31,3.75-2,.34-.19.68-.37,1.02-.57.57-.33,1.14-.67,1.7-1.01.46-.27.91-.55,1.35-.83.5-.31,1-.62,1.5-.94.86-.57,1.71-1.14,2.56-1.73.37-.26.73-.52,1.09-.78.63-.45,1.24-.9,1.86-1.36.33-.25.66-.5.99-.76.91-.7,1.81-1.42,2.7-2.15,1.01-.84,2.01-1.7,2.98-2.57.98-.88,1.94-1.78,2.88-2.69.47-.46.93-.92,1.39-1.39,1.39-1.4,2.73-2.84,4.03-4.33.43-.49.86-.99,1.28-1.49.83-.99,1.65-2,2.45-3.02.01-.02.03-.04.05-.06.39-.52.78-1.03,1.17-1.55.39-.53.78-1.06,1.16-1.6.38-.53.76-1.07,1.13-1.62.37-.53.73-1.07,1.09-1.62,1.08-1.66,2.12-3.35,3.11-5.08.25-.44.5-.88.74-1.32.45-.81.88-1.63,1.31-2.45.2-.4.4-.8.6-1.2.27-.54.54-1.08.79-1.63.17-.35.34-.7.49-1.06.17-.35.33-.7.48-1.05.4-.88.78-1.77,1.14-2.67.31-.74.6-1.49.88-2.24.14-.34.27-.68.39-1.03.26-.69.51-1.38.74-2.08.04-.09.07-.18.09-.28.21-.6.41-1.2.6-1.8.05-.17.11-.35.16-.52.14-.43.27-.87.4-1.31.11-.38.22-.75.32-1.12.09-.3.17-.6.24-.89.11-.39.22-.77.31-1.16.17-.63.32-1.26.47-1.89.18-.75.35-1.51.51-2.27.19-.88.37-1.77.52-2.66.12-.61.22-1.22.32-1.83.02-.11.04-.23.05-.34.1-.58.19-1.16.27-1.74.05-.39.1-.78.15-1.17.03-.22.06-.44.08-.66.07-.51.13-1.03.18-1.55.22-2.14.38-4.29.46-6.47.76-20.38-4.71-39.43-14.68-55.4ZM22.09,11.49c-1.2,1.39-2.36,2.81-3.48,4.27,1.11-1.46,2.27-2.88,3.48-4.27Z"/>
        <path class="cls-10" d="M15.69,19.63c-.25.39-.49.78-.73,1.17-.01,0-.01.01-.01.02-.07.09-.13.18-.19.27.31-.49.62-.98.93-1.46Z"/>
      </g>
    </g>
  </g>
</svg>